<mxfile host="app.diagrams.net" modified="2021-08-10T12:38:07.678Z" agent="5.0 (Windows NT 10.0; Win64; x64) AppleWebKit/537.36 (KHTML, like Gecko) Chrome/92.0.4515.131 Safari/537.36 Edg/92.0.902.67" etag="efqbCjkHJVZ_ROh9tWqs" version="14.9.5" type="github">
  <diagram id="8i6xJ-SLC5uxjcjtr18_" name="Page-1">
    <mxGraphModel dx="1422" dy="762" grid="1" gridSize="10" guides="1" tooltips="1" connect="1" arrows="1" fold="1" page="1" pageScale="1" pageWidth="827" pageHeight="1169" math="0" shadow="0">
      <root>
        <mxCell id="0" />
        <mxCell id="1" parent="0" />
        <mxCell id="3IujC8vaHjT7PhUTica0-5" style="edgeStyle=orthogonalEdgeStyle;rounded=0;orthogonalLoop=1;jettySize=auto;html=1;exitX=1;exitY=0.5;exitDx=0;exitDy=0;entryX=0;entryY=0.5;entryDx=0;entryDy=0;fontSize=16;strokeWidth=2;fontStyle=1" edge="1" parent="1" source="3IujC8vaHjT7PhUTica0-1" target="3IujC8vaHjT7PhUTica0-4">
          <mxGeometry relative="1" as="geometry" />
        </mxCell>
        <mxCell id="3IujC8vaHjT7PhUTica0-11" style="edgeStyle=orthogonalEdgeStyle;rounded=0;orthogonalLoop=1;jettySize=auto;html=1;entryX=0;entryY=0.5;entryDx=0;entryDy=0;fontSize=16;strokeWidth=2;fontStyle=1" edge="1" parent="1" source="3IujC8vaHjT7PhUTica0-1" target="3IujC8vaHjT7PhUTica0-9">
          <mxGeometry relative="1" as="geometry" />
        </mxCell>
        <mxCell id="3IujC8vaHjT7PhUTica0-1" value="Camera(60Hz)" style="rounded=0;whiteSpace=wrap;html=1;fontSize=16;strokeWidth=2;fontStyle=1" vertex="1" parent="1">
          <mxGeometry x="60" y="160" width="120" height="70" as="geometry" />
        </mxCell>
        <mxCell id="3IujC8vaHjT7PhUTica0-18" style="edgeStyle=orthogonalEdgeStyle;rounded=0;orthogonalLoop=1;jettySize=auto;html=1;fontSize=16;strokeWidth=2;fontStyle=1" edge="1" parent="1" source="3IujC8vaHjT7PhUTica0-2" target="3IujC8vaHjT7PhUTica0-3">
          <mxGeometry relative="1" as="geometry" />
        </mxCell>
        <mxCell id="3IujC8vaHjT7PhUTica0-2" value="IMU(100Hz)" style="rounded=0;whiteSpace=wrap;html=1;fontSize=16;strokeWidth=2;fontStyle=1" vertex="1" parent="1">
          <mxGeometry x="60" y="340" width="120" height="70" as="geometry" />
        </mxCell>
        <mxCell id="3IujC8vaHjT7PhUTica0-17" style="edgeStyle=orthogonalEdgeStyle;rounded=0;orthogonalLoop=1;jettySize=auto;html=1;entryX=0;entryY=0.5;entryDx=0;entryDy=0;fontSize=16;strokeWidth=2;fontStyle=1" edge="1" parent="1" source="3IujC8vaHjT7PhUTica0-3" target="3IujC8vaHjT7PhUTica0-10">
          <mxGeometry relative="1" as="geometry" />
        </mxCell>
        <mxCell id="3IujC8vaHjT7PhUTica0-3" value="IMU&lt;br style=&quot;font-size: 16px;&quot;&gt;Pre-integration" style="rounded=0;whiteSpace=wrap;html=1;fontSize=16;strokeWidth=2;fontStyle=1" vertex="1" parent="1">
          <mxGeometry x="354" y="345" width="120" height="60" as="geometry" />
        </mxCell>
        <mxCell id="3IujC8vaHjT7PhUTica0-13" style="edgeStyle=orthogonalEdgeStyle;rounded=0;orthogonalLoop=1;jettySize=auto;html=1;entryX=0;entryY=0.5;entryDx=0;entryDy=0;fontSize=16;strokeWidth=2;fontStyle=1" edge="1" parent="1" source="3IujC8vaHjT7PhUTica0-4" target="3IujC8vaHjT7PhUTica0-10">
          <mxGeometry relative="1" as="geometry" />
        </mxCell>
        <mxCell id="3IujC8vaHjT7PhUTica0-4" value="Initial feature points detection and tracking&lt;br style=&quot;font-size: 16px;&quot;&gt;(KLT sparse optical flow)" style="rounded=0;whiteSpace=wrap;html=1;fontSize=16;strokeWidth=2;fontStyle=1" vertex="1" parent="1">
          <mxGeometry x="304" y="80" width="220" height="90" as="geometry" />
        </mxCell>
        <mxCell id="3IujC8vaHjT7PhUTica0-14" style="edgeStyle=orthogonalEdgeStyle;rounded=0;orthogonalLoop=1;jettySize=auto;html=1;fontSize=16;strokeWidth=2;entryX=0;entryY=0.5;entryDx=0;entryDy=0;fontStyle=1" edge="1" parent="1" source="3IujC8vaHjT7PhUTica0-9" target="3IujC8vaHjT7PhUTica0-10">
          <mxGeometry relative="1" as="geometry">
            <mxPoint x="670" y="280" as="targetPoint" />
          </mxGeometry>
        </mxCell>
        <mxCell id="3IujC8vaHjT7PhUTica0-9" value="Line segment detction and merging based on imporved EDLine algorithm" style="rounded=0;whiteSpace=wrap;html=1;fontSize=16;strokeWidth=2;fontStyle=1" vertex="1" parent="1">
          <mxGeometry x="304" y="210" width="220" height="90" as="geometry" />
        </mxCell>
        <mxCell id="3IujC8vaHjT7PhUTica0-10" value="Pose map" style="rounded=0;whiteSpace=wrap;html=1;fontSize=16;strokeWidth=2;fontStyle=1" vertex="1" parent="1">
          <mxGeometry x="680" y="225" width="110" height="60" as="geometry" />
        </mxCell>
        <mxCell id="3IujC8vaHjT7PhUTica0-12" value="" style="rounded=0;whiteSpace=wrap;html=1;fontSize=16;strokeWidth=2;dashed=1;fillColor=none;fontStyle=1;strokeColor=#FF0000;" vertex="1" parent="1">
          <mxGeometry x="50" y="120" width="140" height="310" as="geometry" />
        </mxCell>
        <mxCell id="3IujC8vaHjT7PhUTica0-19" value="" style="rounded=0;whiteSpace=wrap;html=1;fontSize=16;strokeWidth=2;dashed=1;fillColor=none;strokeColor=#FF0000;" vertex="1" parent="1">
          <mxGeometry x="220" y="40" width="416" height="410" as="geometry" />
        </mxCell>
      </root>
    </mxGraphModel>
  </diagram>
</mxfile>
